<?xml version="1.0" standalone="no"?>
<!DOCTYPE svg PUBLIC "-//W3C//DTD SVG 20010904//EN" "http://www.w3.org/TR/2001/REC-SVG-20010904/DTD/svg10.dtd">
<!-- Created using Krita: https://krita.org -->
<svg xmlns="http://www.w3.org/2000/svg" 
    xmlns:xlink="http://www.w3.org/1999/xlink"
    xmlns:krita="http://krita.org/namespaces/svg/krita"
    xmlns:sodipodi="http://sodipodi.sourceforge.net/DTD/sodipodi-0.dtd"
    width="432pt"
    height="432pt"
    viewBox="0 0 432 432">
<defs/>
<path id="shape0" transform="translate(95.0160685118892, 229.68)" fill="none" stroke="#f85863" stroke-width="7.2" stroke-linecap="square" stroke-linejoin="bevel" d="M0.0318163 345.6C111.282 345.6 176.781 345.6 288.032 345.6C287.219 242.916 176.341 202.508 172.824 173.037C173.088 129.623 289.709 114.559 288.032 6.72311e-14C174.481 1.52496e-13 113.583 -4.64557e-14 0.0318163 1.03877e-14C2.95583 115.549 115.234 132.384 115.224 172.8C115.217 202.498 -2.21434 243.399 0.0318163 345.6Z"/><path id="shape1" transform="translate(66.4795504996661, 229.68)" fill="none" stroke="#ff2d23" stroke-width="0.2088" stroke-linecap="square" stroke-linejoin="miter" stroke-miterlimit="2" d="M0 5.68434e-14L344.997 0"/><path id="shape2" transform="translate(66.4795504996661, 229.68)" fill="#ff2d23" fill-rule="evenodd" stroke="#f85863" stroke-width="7.2" stroke-linecap="square" stroke-linejoin="miter" stroke-miterlimit="2" d="M344.997 0L0 0"/><path id="shape01" transform="matrix(0.99999999652887 0 0 0.99999999652887 64.1662524447291 575.28)" fill="#ff2d23" fill-rule="evenodd" stroke="#f85863" stroke-width="7.2" stroke-linecap="square" stroke-linejoin="miter" stroke-miterlimit="2" d="M344.997 0L0 0"/><path id="shape3" transform="translate(109.44, 449.044273476097)" fill="#f85863" fill-rule="evenodd" stroke="#f85863" stroke-width="7.2" stroke-linecap="square" stroke-linejoin="bevel" d="M0 111.836C2.28372 54.1527 46.6582 68.3819 115.2 0.237L144 0C201.453 67.0603 259.133 54.8224 259.2 111.836C256.306 111.742 172.68 111.374 0 111.836Z"/><path id="shape011" transform="matrix(-0.999999988022929 0 0 -0.999999988022929 325.44 388.079999137651)" fill="#f85863" fill-rule="evenodd" stroke="#f85863" stroke-width="7.2" stroke-linecap="square" stroke-linejoin="bevel" d="M0 72C29.6194 25.9707 42.1906 43.2104 72 0L100.8 0C127.972 41.5505 143.252 29.0942 172.8 72C114.798 59.2438 57.2978 58.4466 0 72Z"/>
</svg>
